<?xml version="1.0" encoding="UTF-8"?>
<!-- Created with Inkscape (http://www.inkscape.org/) -->
<svg width="300mm" height="200mm" version="1.1" viewBox="0 0 300 200" xmlns="http://www.w3.org/2000/svg">
 <g transform="translate(-1.2633 -78.223)" stroke-width="1.5577">
  <g id="c1-card" transform="matrix(.61279 -.19319 .19289 .6117 29.449 136.37)" stroke="#36d5f8">
   <path id="c1-body" x="17.564348" y="36.902256" width="82.199997" height="112.2" d="m17.564 36.902h82.2v112.2h-82.2z" fill="#131414" stroke-width="1.5577"/>
   <rect x="32.588" y="52.28" width="52.153" height="81.445" fill="none" stroke-width="1.0904"/>
   <text x="42.154346" y="113.88106" fill="#000000" font-family="'Card Characters'" font-size="50.8px" stroke-width=".41215" style="font-variant-caps:normal;font-variant-east-asian:normal;font-variant-ligatures:normal;font-variant-numeric:normal;line-height:1.25" xml:space="preserve"><tspan x="42.154346" y="113.88106" font-family="'Card Characters'" font-size="50.8px" stroke="#36d5f8" stroke-width=".41215" style="font-variant-caps:normal;font-variant-east-asian:normal;font-variant-ligatures:normal;font-variant-numeric:normal">C</tspan></text>
   <g stroke-width="1.5577">
    <g transform="translate(.30158 -.70688)">
     <text x="20.638277" y="51.723656" fill="#000000" font-family="'Card Characters'" font-size="50.8px" stroke-width=".41215" style="font-variant-caps:normal;font-variant-east-asian:normal;font-variant-ligatures:normal;font-variant-numeric:normal;line-height:1.25" xml:space="preserve"><tspan x="20.638277" y="51.723656" font-family="'Card Characters'" font-size="12.7px" stroke="#36d5f8" stroke-width=".41215" style="font-variant-caps:normal;font-variant-east-asian:normal;font-variant-ligatures:normal;font-variant-numeric:normal">C</tspan></text>
     <path d="m19.873 68.332v0.18304m4.5637-4.2503c-0.56072-0.8112-1.0623-1.3909-2.2543-2.6053-2.1091-2.1488-2.4924-2.7859-2.4924-4.1425 0-3.072 3.8855-4.0166 4.9591-1.2056 0.10314 0.27006 0.12853 0.2685 0.23016-0.01412 1.0993-3.0569 5.4143-1.5534 4.9247 1.716-0.17065 1.1396-0.57428 1.7294-2.5681 3.7522-1.2305 1.2484-1.6595 1.7507-2.2769 2.6655-0.10616 0.1573-0.1974 0.28503-0.20275 0.28386-0.0054-0.0012-0.14908-0.20373-0.3194-0.45012z" stroke-width=".41215"/>
    </g>
    <g transform="translate(67.107 -.70688)">
     <text x="20.638277" y="51.723656" fill="#000000" font-family="'Card Characters'" font-size="50.8px" stroke-width=".41215" style="font-variant-caps:normal;font-variant-east-asian:normal;font-variant-ligatures:normal;font-variant-numeric:normal;line-height:1.25" xml:space="preserve"><tspan x="20.638277" y="51.723656" font-family="'Card Characters'" font-size="12.7px" stroke="#36d5f8" stroke-width=".41215" style="font-variant-caps:normal;font-variant-east-asian:normal;font-variant-ligatures:normal;font-variant-numeric:normal">C</tspan></text>
     <path d="m19.873 68.332v0.18304m4.5637-4.2503c-0.56072-0.8112-1.0623-1.3909-2.2543-2.6053-2.1091-2.1488-2.4924-2.7859-2.4924-4.1425 0-3.072 3.8855-4.0166 4.9591-1.2056 0.10314 0.27006 0.12853 0.2685 0.23016-0.01412 1.0993-3.0569 5.4143-1.5534 4.9247 1.716-0.17065 1.1396-0.57428 1.7294-2.5681 3.7522-1.2305 1.2484-1.6595 1.7507-2.2769 2.6655-0.10616 0.1573-0.1974 0.28503-0.20275 0.28386-0.0054-0.0012-0.14908-0.20373-0.3194-0.45012z" stroke-width=".41215"/>
    </g>
    <g transform="rotate(180 58.291 93.692)">
     <text x="20.638277" y="51.723656" fill="#000000" font-family="'Card Characters'" font-size="50.8px" stroke-width=".41215" style="font-variant-caps:normal;font-variant-east-asian:normal;font-variant-ligatures:normal;font-variant-numeric:normal;line-height:1.25" xml:space="preserve"><tspan x="20.638277" y="51.723656" font-family="'Card Characters'" font-size="12.7px" stroke="#36d5f8" stroke-width=".41215" style="font-variant-caps:normal;font-variant-east-asian:normal;font-variant-ligatures:normal;font-variant-numeric:normal">C</tspan></text>
     <path d="m19.873 68.332v0.18304m4.5637-4.2503c-0.56072-0.8112-1.0623-1.3909-2.2543-2.6053-2.1091-2.1488-2.4924-2.7859-2.4924-4.1425 0-3.072 3.8855-4.0166 4.9591-1.2056 0.10314 0.27006 0.12853 0.2685 0.23016-0.01412 1.0993-3.0569 5.4143-1.5534 4.9247 1.716-0.17065 1.1396-0.57428 1.7294-2.5681 3.7522-1.2305 1.2484-1.6595 1.7507-2.2769 2.6655-0.10616 0.1573-0.1974 0.28503-0.20275 0.28386-0.0054-0.0012-0.14908-0.20373-0.3194-0.45012z" stroke-width=".41215"/>
    </g>
    <g transform="rotate(180 24.888 93.692)">
     <text x="20.638277" y="51.723656" fill="#000000" font-family="'Card Characters'" font-size="50.8px" stroke-width=".41215" style="font-variant-caps:normal;font-variant-east-asian:normal;font-variant-ligatures:normal;font-variant-numeric:normal;line-height:1.25" xml:space="preserve"><tspan x="20.638277" y="51.723656" font-family="'Card Characters'" font-size="12.7px" stroke="#36d5f8" stroke-width=".41215" style="font-variant-caps:normal;font-variant-east-asian:normal;font-variant-ligatures:normal;font-variant-numeric:normal">C</tspan></text>
     <path d="m19.873 68.332v0.18304m4.5637-4.2503c-0.56072-0.8112-1.0623-1.3909-2.2543-2.6053-2.1091-2.1488-2.4924-2.7859-2.4924-4.1425 0-3.072 3.8855-4.0166 4.9591-1.2056 0.10314 0.27006 0.12853 0.2685 0.23016-0.01412 1.0993-3.0569 5.4143-1.5534 4.9247 1.716-0.17065 1.1396-0.57428 1.7294-2.5681 3.7522-1.2305 1.2484-1.6595 1.7507-2.2769 2.6655-0.10616 0.1573-0.1974 0.28503-0.20275 0.28386-0.0054-0.0012-0.14908-0.20373-0.3194-0.45012z" stroke-width=".41215"/>
    </g>
   </g>
  </g>
  <g id="c2-card" transform="matrix(.63703 -.083858 .083726 .6359 84.284 117.1)" stroke="#00f49f">
   <path id="c2-body" x="17.564348" y="36.902256" width="82.199997" height="112.2" d="m17.564 36.902h82.2v112.2h-82.2z" fill="#131414" stroke-width="1.5577"/>
   <rect x="32.588" y="52.28" width="52.153" height="81.445" fill="none" stroke-width="1.0904"/>
   <text x="42.154346" y="113.88106" fill="#000000" font-family="'Card Characters'" font-size="50.8px" stroke-width=".41215" style="font-variant-caps:normal;font-variant-east-asian:normal;font-variant-ligatures:normal;font-variant-numeric:normal;line-height:1.25" xml:space="preserve"><tspan x="42.154346" y="113.88106" font-family="'Card Characters'" font-size="50.8px" stroke="#00f49f" stroke-width=".41215" style="font-variant-caps:normal;font-variant-east-asian:normal;font-variant-ligatures:normal;font-variant-numeric:normal">C</tspan></text>
   <g stroke-width="1.5577">
    <g transform="translate(.30158 -.70688)">
     <text x="20.638277" y="51.723656" fill="#000000" font-family="'Card Characters'" font-size="50.8px" stroke-width=".41215" style="font-variant-caps:normal;font-variant-east-asian:normal;font-variant-ligatures:normal;font-variant-numeric:normal;line-height:1.25" xml:space="preserve"><tspan x="20.638277" y="51.723656" font-family="'Card Characters'" font-size="12.7px" stroke="#00f49f" stroke-width=".41215" style="font-variant-caps:normal;font-variant-east-asian:normal;font-variant-ligatures:normal;font-variant-numeric:normal">C</tspan></text>
     <path d="m19.873 68.332v0.18304m4.5637-4.2503c-0.56072-0.8112-1.0623-1.3909-2.2543-2.6053-2.1091-2.1488-2.4924-2.7859-2.4924-4.1425 0-3.072 3.8855-4.0166 4.9591-1.2056 0.10314 0.27006 0.12853 0.2685 0.23016-0.01412 1.0993-3.0569 5.4143-1.5534 4.9247 1.716-0.17065 1.1396-0.57428 1.7294-2.5681 3.7522-1.2305 1.2484-1.6595 1.7507-2.2769 2.6655-0.10616 0.1573-0.1974 0.28503-0.20275 0.28386-0.0054-0.0012-0.14908-0.20373-0.3194-0.45012z" stroke-width=".41215"/>
    </g>
    <g transform="translate(67.107 -.70688)">
     <text x="20.638277" y="51.723656" fill="#000000" font-family="'Card Characters'" font-size="50.8px" stroke-width=".41215" style="font-variant-caps:normal;font-variant-east-asian:normal;font-variant-ligatures:normal;font-variant-numeric:normal;line-height:1.25" xml:space="preserve"><tspan x="20.638277" y="51.723656" font-family="'Card Characters'" font-size="12.7px" stroke="#00f49f" stroke-width=".41215" style="font-variant-caps:normal;font-variant-east-asian:normal;font-variant-ligatures:normal;font-variant-numeric:normal">C</tspan></text>
     <path d="m19.873 68.332v0.18304m4.5637-4.2503c-0.56072-0.8112-1.0623-1.3909-2.2543-2.6053-2.1091-2.1488-2.4924-2.7859-2.4924-4.1425 0-3.072 3.8855-4.0166 4.9591-1.2056 0.10314 0.27006 0.12853 0.2685 0.23016-0.01412 1.0993-3.0569 5.4143-1.5534 4.9247 1.716-0.17065 1.1396-0.57428 1.7294-2.5681 3.7522-1.2305 1.2484-1.6595 1.7507-2.2769 2.6655-0.10616 0.1573-0.1974 0.28503-0.20275 0.28386-0.0054-0.0012-0.14908-0.20373-0.3194-0.45012z" stroke-width=".41215"/>
    </g>
    <g transform="rotate(180 58.291 93.692)">
     <text x="20.638277" y="51.723656" fill="#000000" font-family="'Card Characters'" font-size="50.8px" stroke-width=".41215" style="font-variant-caps:normal;font-variant-east-asian:normal;font-variant-ligatures:normal;font-variant-numeric:normal;line-height:1.25" xml:space="preserve"><tspan x="20.638277" y="51.723656" font-family="'Card Characters'" font-size="12.7px" stroke="#00f49f" stroke-width=".41215" style="font-variant-caps:normal;font-variant-east-asian:normal;font-variant-ligatures:normal;font-variant-numeric:normal">C</tspan></text>
     <path d="m19.873 68.332v0.18304m4.5637-4.2503c-0.56072-0.8112-1.0623-1.3909-2.2543-2.6053-2.1091-2.1488-2.4924-2.7859-2.4924-4.1425 0-3.072 3.8855-4.0166 4.9591-1.2056 0.10314 0.27006 0.12853 0.2685 0.23016-0.01412 1.0993-3.0569 5.4143-1.5534 4.9247 1.716-0.17065 1.1396-0.57428 1.7294-2.5681 3.7522-1.2305 1.2484-1.6595 1.7507-2.2769 2.6655-0.10616 0.1573-0.1974 0.28503-0.20275 0.28386-0.0054-0.0012-0.14908-0.20373-0.3194-0.45012z" stroke-width=".41215"/>
    </g>
    <g transform="rotate(180 24.888 93.692)">
     <text x="20.638277" y="51.723656" fill="#000000" font-family="'Card Characters'" font-size="50.8px" stroke-width=".41215" style="font-variant-caps:normal;font-variant-east-asian:normal;font-variant-ligatures:normal;font-variant-numeric:normal;line-height:1.25" xml:space="preserve"><tspan x="20.638277" y="51.723656" font-family="'Card Characters'" font-size="12.7px" stroke="#00f49f" stroke-width=".41215" style="font-variant-caps:normal;font-variant-east-asian:normal;font-variant-ligatures:normal;font-variant-numeric:normal">C</tspan></text>
     <path d="m19.873 68.332v0.18304m4.5637-4.2503c-0.56072-0.8112-1.0623-1.3909-2.2543-2.6053-2.1091-2.1488-2.4924-2.7859-2.4924-4.1425 0-3.072 3.8855-4.0166 4.9591-1.2056 0.10314 0.27006 0.12853 0.2685 0.23016-0.01412 1.0993-3.0569 5.4143-1.5534 4.9247 1.716-0.17065 1.1396-0.57428 1.7294-2.5681 3.7522-1.2305 1.2484-1.6595 1.7507-2.2769 2.6655-0.10616 0.1573-0.1974 0.28503-0.20275 0.28386-0.0054-0.0012-0.14908-0.20373-0.3194-0.45012z" stroke-width=".41215"/>
    </g>
   </g>
  </g>
  <g id="d2-card" transform="matrix(.61279 .19319 -.19289 .6117 141.97 95.076)" stroke="#ff9843">
   <path id="d2-body" x="114.16183" y="36.844017" width="82.199997" height="112.2" d="m114.16 36.844h82.2v112.2h-82.2z" fill="#131414" stroke-width="1.5577"/>
   <rect x="128.7" y="50.672" width="52.153" height="81.445" fill="none" stroke-width="1.0904"/>
   <text x="138.26421" y="112.27367" fill="#000000" font-family="'Card Characters'" font-size="50.8px" stroke-width=".41215" style="font-variant-caps:normal;font-variant-east-asian:normal;font-variant-ligatures:normal;font-variant-numeric:normal;line-height:1.25" xml:space="preserve"><tspan x="138.26421" y="112.27367" font-family="'Card Characters'" font-size="50.8px" stroke="#ff9843" stroke-width=".41215" style="font-variant-caps:normal;font-variant-east-asian:normal;font-variant-ligatures:normal;font-variant-numeric:normal">D</tspan></text>
   <g transform="translate(96.411 -2.3143)" stroke-width="1.5577">
    <text x="20.638277" y="51.723656" fill="#000000" font-family="'Card Characters'" font-size="50.8px" stroke="#ff9843" stroke-width=".41215" style="font-variant-caps:normal;font-variant-east-asian:normal;font-variant-ligatures:normal;font-variant-numeric:normal;line-height:1.25" xml:space="preserve"><tspan x="20.638277" y="51.723656" font-family="'Card Characters'" font-size="12.7px" stroke="#ff9843" stroke-width=".41215" style="font-variant-caps:normal;font-variant-east-asian:normal;font-variant-ligatures:normal;font-variant-numeric:normal">D</tspan></text>
   </g>
   <g transform="translate(163.22 -2.3143)" stroke-width=".41215">
    <text x="20.638277" y="51.723656" fill="#000000" font-family="'Card Characters'" font-size="50.8px" style="font-variant-caps:normal;font-variant-east-asian:normal;font-variant-ligatures:normal;font-variant-numeric:normal;line-height:1.25" xml:space="preserve"><tspan x="20.638277" y="51.723656" font-family="'Card Characters'" font-size="12.7px" stroke="#ff9843" stroke-width=".41215" style="font-variant-caps:normal;font-variant-east-asian:normal;font-variant-ligatures:normal;font-variant-numeric:normal">D</tspan></text>
    <path d="m23.362 64.371c-0.0195-0.0509 0.10154-0.21604 0.34827-0.47505 0.58539-0.61452 0.82988-1.1805 0.89808-2.079 0.0418-0.55027-0.0159-0.57979-0.23508-0.12044-0.69895 1.4645-2.8476 1.7398-4.0779 0.52243-1.9367-1.9163-0.1323-5.0648 2.5584-4.4642l0.1519 0.0339-0.15549-0.20061c-1.0938-1.4112-0.65452-3.4627 0.9045-4.2239 2.6077-1.2732 5.15 1.688 3.5082 4.0862l-0.22997 0.3359 0.14556-0.0331c2.9571-0.6726 4.6373 3.1433 2.1193 4.8131-1.241 0.82295-3.0259 0.39606-3.6507-0.8731-0.22368-0.45434-0.27081-0.42162-0.22995 0.15966 0.0618 0.87839 0.32825 1.4705 0.9412 2.0911 0.22941 0.23228 0.32805 0.36847 0.30686 0.42369l-0.0312 0.0814h-3.2419z"/>
   </g>
   <g transform="rotate(180 106.35 92.889)" stroke-width="1.5577">
    <text x="20.638277" y="51.723656" fill="#000000" font-family="'Card Characters'" font-size="50.8px" stroke="#ff9843" stroke-width=".41215" style="font-variant-caps:normal;font-variant-east-asian:normal;font-variant-ligatures:normal;font-variant-numeric:normal;line-height:1.25" xml:space="preserve"><tspan x="20.638277" y="51.723656" font-family="'Card Characters'" font-size="12.7px" stroke="#ff9843" stroke-width=".41215" style="font-variant-caps:normal;font-variant-east-asian:normal;font-variant-ligatures:normal;font-variant-numeric:normal">D</tspan></text>
   </g>
   <g transform="rotate(180 72.943 92.889)" stroke-width="1.5577">
    <text x="20.638277" y="51.723656" fill="#000000" font-family="'Card Characters'" font-size="50.8px" stroke="#ff9843" stroke-width=".41215" style="font-variant-caps:normal;font-variant-east-asian:normal;font-variant-ligatures:normal;font-variant-numeric:normal;line-height:1.25" xml:space="preserve"><tspan x="20.638277" y="51.723656" font-family="'Card Characters'" font-size="12.7px" stroke="#ff9843" stroke-width=".41215" style="font-variant-caps:normal;font-variant-east-asian:normal;font-variant-ligatures:normal;font-variant-numeric:normal">D</tspan></text>
   </g>
   <g stroke-width=".41215">
    <path d="m119.43 62.057c-0.0195-0.0509 0.10154-0.21604 0.34827-0.47505 0.58539-0.61452 0.82988-1.1805 0.89808-2.079 0.0418-0.55027-0.0159-0.57979-0.23508-0.12044-0.69895 1.4645-2.8476 1.7398-4.0779 0.52243-1.9367-1.9163-0.1323-5.0648 2.5584-4.4642l0.1519 0.0339-0.15549-0.20061c-1.0938-1.4112-0.65452-3.4627 0.9045-4.2239 2.6077-1.2732 5.15 1.688 3.5082 4.0862l-0.22997 0.3359 0.14556-0.0331c2.9571-0.6726 4.6373 3.1433 2.1193 4.8131-1.241 0.82295-3.0259 0.39606-3.6507-0.8731-0.22368-0.45434-0.27081-0.42162-0.22995 0.15966 0.0618 0.87839 0.32825 1.4705 0.9412 2.0911 0.22941 0.23228 0.32805 0.36847 0.30686 0.42369l-0.0312 0.0814h-3.2419z"/>
    <path d="m122.92 120.67c0.0195 0.0509-0.10154 0.21604-0.34827 0.47505-0.58539 0.61452-0.82988 1.1805-0.89808 2.079-0.0418 0.55027 0.0159 0.57979 0.23508 0.12044 0.69895-1.4645 2.8476-1.7398 4.0779-0.52243 1.9367 1.9163 0.1323 5.0648-2.5584 4.4642l-0.1519-0.0339 0.15549 0.20061c1.0938 1.4112 0.65452 3.4627-0.9045 4.2239-2.6077 1.2732-5.15-1.688-3.5082-4.0862l0.22997-0.3359-0.14556 0.0331c-2.9571 0.6726-4.6373-3.1433-2.1193-4.8131 1.241-0.82295 3.0259-0.39606 3.6507 0.8731 0.22368 0.45434 0.27081 0.42162 0.22995-0.15966-0.0618-0.87839-0.32825-1.4705-0.9412-2.0911-0.22941-0.23228-0.32805-0.36847-0.30686-0.42369l0.0312-0.0814h3.2419z"/>
    <path d="m190.06 120.67c0.0195 0.0509-0.10154 0.21604-0.34827 0.47505-0.58539 0.61452-0.82988 1.1805-0.89808 2.079-0.0418 0.55027 0.0159 0.57979 0.23508 0.12044 0.69895-1.4645 2.8476-1.7398 4.0779-0.52243 1.9367 1.9163 0.1323 5.0648-2.5584 4.4642l-0.1519-0.0339 0.15549 0.20061c1.0938 1.4112 0.65452 3.4627-0.9045 4.2239-2.6077 1.2732-5.15-1.688-3.5082-4.0862l0.22997-0.3359-0.14556 0.0331c-2.9571 0.6726-4.6373-3.1433-2.1193-4.8131 1.241-0.82295 3.0259-0.39606 3.6507 0.8731 0.22368 0.45434 0.27081 0.42162 0.22995-0.15966-0.0618-0.87839-0.32825-1.4705-0.9412-2.0911-0.22941-0.23228-0.32805-0.36847-0.30686-0.42369l0.0312-0.0814h3.2419z"/>
   </g>
  </g>
  <g id="d1-card" transform="matrix(.63703 .083858 -.083726 .6359 82.142 100.22)" stroke="#ff5443">
   <path id="d1-body" x="113.67421" y="35.294876" width="82.199997" height="112.2" d="m113.67 35.295h82.2v112.2h-82.2z" fill="#131414" stroke-width="1.5577"/>
   <rect x="128.7" y="50.672" width="52.153" height="81.445" fill="none" stroke-width="1.0904"/>
   <g stroke-width=".41215">
    <text x="138.26421" y="112.27367" fill="#000000" font-family="'Card Characters'" font-size="50.8px" style="font-variant-caps:normal;font-variant-east-asian:normal;font-variant-ligatures:normal;font-variant-numeric:normal;line-height:1.25" xml:space="preserve"><tspan x="138.26421" y="112.27367" font-family="'Card Characters'" font-size="50.8px" stroke="#ff5443" stroke-width=".41215" style="font-variant-caps:normal;font-variant-east-asian:normal;font-variant-ligatures:normal;font-variant-numeric:normal">D</tspan></text>
    <text transform="translate(163.22 -2.3143)" x="20.638277" y="51.723656" fill="#000000" font-family="'Card Characters'" font-size="50.8px" style="font-variant-caps:normal;font-variant-east-asian:normal;font-variant-ligatures:normal;font-variant-numeric:normal;line-height:1.25" xml:space="preserve"><tspan x="20.638277" y="51.723656" font-family="'Card Characters'" font-size="12.7px" stroke="#ff5443" stroke-width=".41215" style="font-variant-caps:normal;font-variant-east-asian:normal;font-variant-ligatures:normal;font-variant-numeric:normal">D</tspan></text>
    <path transform="translate(163.22 -2.3143)" d="m23.362 64.371c-0.0195-0.0509 0.10154-0.21604 0.34827-0.47505 0.58539-0.61452 0.82988-1.1805 0.89808-2.079 0.0418-0.55027-0.0159-0.57979-0.23508-0.12044-0.69895 1.4645-2.8476 1.7398-4.0779 0.52243-1.9367-1.9163-0.1323-5.0648 2.5584-4.4642l0.1519 0.0339-0.15549-0.20061c-1.0938-1.4112-0.65452-3.4627 0.9045-4.2239 2.6077-1.2732 5.15 1.688 3.5082 4.0862l-0.22997 0.3359 0.14556-0.0331c2.9571-0.6726 4.6373 3.1433 2.1193 4.8131-1.241 0.82295-3.0259 0.39606-3.6507-0.8731-0.22368-0.45434-0.27081-0.42162-0.22995 0.15966 0.0618 0.87839 0.32825 1.4705 0.9412 2.0911 0.22941 0.23228 0.32805 0.36847 0.30686 0.42369l-0.0312 0.0814h-3.2419z"/>
    <text transform="rotate(180 106.35 92.889)" x="20.638277" y="51.723656" fill="#000000" font-family="'Card Characters'" font-size="50.8px" style="font-variant-caps:normal;font-variant-east-asian:normal;font-variant-ligatures:normal;font-variant-numeric:normal;line-height:1.25" xml:space="preserve"><tspan x="20.638277" y="51.723656" font-family="'Card Characters'" font-size="12.7px" stroke="#ff5443" stroke-width=".41215" style="font-variant-caps:normal;font-variant-east-asian:normal;font-variant-ligatures:normal;font-variant-numeric:normal">D</tspan></text>
    <text transform="rotate(180 72.943 92.889)" x="20.638277" y="51.723656" fill="#000000" font-family="'Card Characters'" font-size="50.8px" style="font-variant-caps:normal;font-variant-east-asian:normal;font-variant-ligatures:normal;font-variant-numeric:normal;line-height:1.25" xml:space="preserve"><tspan x="20.638277" y="51.723656" font-family="'Card Characters'" font-size="12.7px" stroke="#ff5443" stroke-width=".41215" style="font-variant-caps:normal;font-variant-east-asian:normal;font-variant-ligatures:normal;font-variant-numeric:normal">D</tspan></text>
   </g>
   <g stroke-width=".41215">
    <path d="m119.43 62.057c-0.0195-0.0509 0.10154-0.21604 0.34827-0.47505 0.58539-0.61452 0.82988-1.1805 0.89808-2.079 0.0418-0.55027-0.0159-0.57979-0.23508-0.12044-0.69895 1.4645-2.8476 1.7398-4.0779 0.52243-1.9367-1.9163-0.1323-5.0648 2.5584-4.4642l0.1519 0.0339-0.15549-0.20061c-1.0938-1.4112-0.65452-3.4627 0.9045-4.2239 2.6077-1.2732 5.15 1.688 3.5082 4.0862l-0.22997 0.3359 0.14556-0.0331c2.9571-0.6726 4.6373 3.1433 2.1193 4.8131-1.241 0.82295-3.0259 0.39606-3.6507-0.8731-0.22368-0.45434-0.27081-0.42162-0.22995 0.15966 0.0618 0.87839 0.32825 1.4705 0.9412 2.0911 0.22941 0.23228 0.32805 0.36847 0.30686 0.42369l-0.0312 0.0814h-3.2419z"/>
    <path d="m122.92 120.67c0.0195 0.0509-0.10154 0.21604-0.34827 0.47505-0.58539 0.61452-0.82988 1.1805-0.89808 2.079-0.0418 0.55027 0.0159 0.57979 0.23508 0.12044 0.69895-1.4645 2.8476-1.7398 4.0779-0.52243 1.9367 1.9163 0.1323 5.0648-2.5584 4.4642l-0.1519-0.0339 0.15549 0.20061c1.0938 1.4112 0.65452 3.4627-0.9045 4.2239-2.6077 1.2732-5.15-1.688-3.5082-4.0862l0.22997-0.3359-0.14556 0.0331c-2.9571 0.6726-4.6373-3.1433-2.1193-4.8131 1.241-0.82295 3.0259-0.39606 3.6507 0.8731 0.22368 0.45434 0.27081 0.42162 0.22995-0.15966-0.0618-0.87839-0.32825-1.4705-0.9412-2.0911-0.22941-0.23228-0.32805-0.36847-0.30686-0.42369l0.0312-0.0814h3.2419z"/>
    <path d="m190.06 120.67c0.0195 0.0509-0.10154 0.21604-0.34827 0.47505-0.58539 0.61452-0.82988 1.1805-0.89808 2.079-0.0418 0.55027 0.0159 0.57979 0.23508 0.12044 0.69895-1.4645 2.8476-1.7398 4.0779-0.52243 1.9367 1.9163 0.1323 5.0648-2.5584 4.4642l-0.1519-0.0339 0.15549 0.20061c1.0938 1.4112 0.65452 3.4627-0.9045 4.2239-2.6077 1.2732-5.15-1.688-3.5082-4.0862l0.22997-0.3359-0.14556 0.0331c-2.9571 0.6726-4.6373-3.1433-2.1193-4.8131 1.241-0.82295 3.0259-0.39606 3.6507 0.8731 0.22368 0.45434 0.27081 0.42162 0.22995-0.15966-0.0618-0.87839-0.32825-1.4705-0.9412-2.0911-0.22941-0.23228-0.32805-0.36847-0.30686-0.42369l0.0312-0.0814h3.2419z"/>
   </g>
   <text transform="translate(96.411 -2.3143)" x="20.638277" y="51.723656" fill="#000000" font-family="'Card Characters'" font-size="50.8px" stroke-width=".41215" style="font-variant-caps:normal;font-variant-east-asian:normal;font-variant-ligatures:normal;font-variant-numeric:normal;line-height:1.25" xml:space="preserve"><tspan x="20.638277" y="51.723656" font-family="'Card Characters'" font-size="12.7px" stroke="#ff5443" stroke-width=".41215" style="font-variant-caps:normal;font-variant-east-asian:normal;font-variant-ligatures:normal;font-variant-numeric:normal">D</tspan></text>
  </g>
 </g>
</svg>
